<?xml version="1.0" encoding="iso-8859-1"?>
<!-- Uploaded to: SVG Repo, www.svgrepo.com, Generator: SVG Repo Mixer Tools -->
<svg height="800px" width="800px" version="1.1" id="Layer_1" xmlns="http://www.w3.org/2000/svg" xmlns:xlink="http://www.w3.org/1999/xlink" 
	 viewBox="0 0 512 512" xml:space="preserve">
<path style="fill:#E6E6E6;" d="M454.336,295.3c0,6.849-0.235,13.526-0.693,20.057c-8.383,121.902-93.715,187.387-197.755,187.387
	c-104.027,0-189.372-65.484-197.755-187.387c-0.458-6.532-0.693-13.209-0.693-20.057c0-15.658,1.2-31.524,3.487-47.365
	C78.362,127.446,159.02,9.26,255.888,9.26c96.881,0,177.526,118.185,194.961,238.674C453.136,263.776,454.336,279.641,454.336,295.3
	z"/>
<path style="fill:#CCCCCC;" d="M255.888,9.26c-74.339,0-134.594,151.281-134.594,286.039c0,133.698,59.316,206.298,132.851,207.432
	C145.356,501.963,57.44,429.326,57.44,295.299C57.44,160.541,146.296,9.26,255.888,9.26z"/>
<g>
	<path style="fill:#FC675B;" d="M451.211,219.684c-77.561,135.654-225.14,172.75-314.021,182.452
		c-22.134,2.42-40.626,3.136-53.489,3.259c-13.11-24.331-21.652-53.069-24.442-86.017l0.309-0.025c0,0,24.689-0.173,62.118-5.493
		c82.659-11.764,227.448-48.65,305.515-164.306l0.309-0.136C437.632,171.725,445.668,195.464,451.211,219.684z"/>
	<path style="fill:#FC675B;" d="M457.63,332.328c-15.011,111.002-98.164,170.417-198.476,170.417
		c-37.984,0-73.499-8.518-103.793-25.133C155.361,477.611,341.9,479.03,457.63,332.328z"/>
	<path style="fill:#FC675B;" d="M389.883,85.856c-70.821,100.608-192.711,131.297-263.692,140.876
		c-31.491,4.247-52.958,4.345-55.513,4.543c-0.16,0.012-5.79,0.012-5.79,0.012l-0.235-0.049
		c5.678-29.108,15.011-57.76,27.294-84.313l0.802,0.37c6.074-0.21,26.109-1.284,53.045-6.469
		c54.081-10.394,135.963-37.33,188.427-107.114l0.358-0.556C354.874,46.366,373.526,64.451,389.883,85.856z"/>
</g>
<g>
	<path style="fill:#E8564F;" d="M121.685,313.86c1.457,33.787,6.901,63.278,15.505,88.276c-22.134,2.42-40.626,3.136-53.489,3.259
		c-13.11-24.331-21.652-53.069-24.442-86.017l0.309-0.025C59.567,319.353,84.256,319.181,121.685,313.86z"/>
	<path style="fill:#E8564F;" d="M64.888,231.287l-0.235-0.049c5.678-29.108,15.011-57.76,27.294-84.313l0.802,0.37
		c6.074-0.21,26.109-1.284,53.045-6.469c-8.752,26.886-15.455,56.118-19.603,85.906c-31.491,4.247-52.958,4.345-55.513,4.543
		C70.517,231.287,64.888,231.287,64.888,231.287z"/>
</g>
<path d="M405.767,96.616c-19.522-29.353-41.853-52.662-66.374-69.279C312.624,9.198,284.568,0,255.999,0
	c-24.404,0-48.583,6.772-71.866,20.13c-4.435,2.544-5.967,8.203-3.423,12.638s8.202,5.966,12.638,3.423
	c20.443-11.729,41.521-17.675,62.651-17.675c20.876,0,41.584,5.781,61.72,17.164c-67.006,81.673-175.941,98.243-213.883,101.57
	c17.616-34.087,40.263-63.755,66.169-84.897c3.961-3.233,4.553-9.065,1.318-13.027c-3.233-3.961-9.065-4.553-13.027-1.318
	c-32.827,26.79-60.992,65.83-81.449,112.898C56.563,197.579,45.84,247.508,45.84,295.295c0,66.415,21.328,122.062,61.678,160.926
	C144.863,492.191,197.595,512,256,512s111.135-19.809,148.481-55.779c40.351-38.864,61.678-94.511,61.678-160.926
	C466.159,227.748,443.582,153.475,405.767,96.616z M94.654,156.451c13.644-0.643,51.89-3.705,97.108-18.176
	c60.107-19.235,107.707-50.347,141.64-92.52c14.633,10.601,28.757,24.29,41.715,40.347c-39.63,53.367-98.824,92.047-176.076,115.018
	c-28.038,8.336-72.475,18.6-126.084,20.68C78.118,199.306,85.47,177.253,94.654,156.451z M69.206,240.463
	c0.342-0.011,0.738-0.023,1.212-0.04c56.99-1.854,104.272-12.746,133.901-21.556c79.092-23.518,140.369-62.974,182.365-117.368
	c1.236,1.77,2.459,3.558,3.665,5.371c8.625,12.968,16.403,26.896,23.26,41.453c-13.294,18.999-29.057,36.705-46.973,52.65
	c-3.819,3.4-4.161,9.252-0.762,13.072c1.829,2.055,4.369,3.103,6.919,3.103c2.19,0,4.387-0.772,6.151-2.342
	c16.106-14.332,30.597-30.012,43.242-46.753c6.504,16.297,11.858,33.172,15.955,50.224
	c-40.443,68.911-104.01,118.984-189.032,148.832c-66.058,23.19-128.454,28.194-162.953,28.934
	c-10.035-20.113-16.691-42.778-19.788-67.554c12.69-0.444,48.408-2.501,94.502-11.987c52.449-10.794,128.545-33.701,193.209-81.53
	c4.111-3.04,4.979-8.839,1.938-12.949c-3.042-4.111-8.839-4.98-12.949-1.938c-61.825,45.728-135.001,67.76-185.503,78.192
	c-45.869,9.473-81.855,11.361-92.815,11.729c-0.254-4.837-0.395-9.735-0.395-14.71C64.357,277.168,66.04,258.748,69.206,240.463z
	 M391.634,442.885c-33.877,32.629-82.047,50.599-135.636,50.599c-22.86,0-44.727-3.281-64.925-9.563
	c14.272-1.836,31.78-4.809,51.403-9.64c4.965-1.222,7.999-6.239,6.777-11.204c-1.223-4.965-6.241-7.996-11.204-6.777
	c-42.013,10.345-74.452,11.83-83.342,12.022c-12.585-7.087-24.12-15.589-34.345-25.437c-8.962-8.633-16.884-18.212-23.747-28.647
	c37.019-1.511,96.215-7.747,158.626-29.658c82.158-28.843,145.36-75.842,188.206-139.883c2.747,17.029,4.192,34.029,4.192,50.599
	c0,11.456-0.678,22.555-2.018,33.259C402,383.041,343.486,422.763,271.643,446.615c-4.853,1.611-7.481,6.851-5.87,11.704
	c1.29,3.885,4.906,6.344,8.786,6.344c0.967,0,1.95-0.153,2.918-0.474c63.783-21.176,117.603-54.365,160.468-98.86
	C428.774,395.882,413.2,422.113,391.634,442.885z"/>
</svg>